<svg width="100" height="30" viewBox="0 0 100 30" fill="none" xmlns="http://www.w3.org/2000/svg">
<rect width="30" height="30" fill="#2F80ED"/>
<path d="M46.5455 25C45.4982 25 44.5212 25 43.6142 25C42.7072 25 41.8751 25 41.1177 25C40.3603 25 39.6778 25 39.07 25C39.07 23.9434 39.07 22.9196 39.07 21.9285C39.07 20.928 39.07 19.7966 39.07 18.5344V11.69C39.07 10.381 39.07 9.21225 39.07 8.18373C39.07 7.14586 39.07 6.08462 39.07 5C40.2388 5 41.5759 5 43.0812 5C44.5866 5 46.0873 5 47.5833 5C49.07 5 50.2996 5.1122 51.272 5.33661C52.2444 5.55166 53.0111 5.86022 53.5721 6.26227C54.1425 6.66433 54.5445 7.14119 54.7783 7.69285C55.012 8.24451 55.1289 8.85694 55.1289 9.53015C55.1289 10.381 54.9653 11.1197 54.638 11.7461C54.3108 12.3726 53.8666 12.8869 53.3056 13.2889C52.7446 13.6816 52.1135 13.9575 51.4122 14.1164V14.5231C52.2724 14.7195 53.0111 15.0093 53.6282 15.3927C54.2547 15.7761 54.7315 16.2903 55.0588 16.9355C55.386 17.5713 55.5497 18.3707 55.5497 19.3338C55.5497 20.194 55.4141 20.9748 55.1429 21.676C54.8718 22.3679 54.4043 22.9617 53.7404 23.4572C53.0766 23.9528 52.1602 24.3361 50.9915 24.6073C49.8227 24.8691 48.3407 25 46.5455 25ZM44.7502 20.9046H47.0924C47.6348 20.9046 48.0882 20.8298 48.4529 20.6802C48.8269 20.5306 49.1027 20.3015 49.2804 19.993C49.4674 19.6844 49.5609 19.3011 49.5609 18.8429C49.5609 18.1791 49.3645 17.6741 48.9718 17.3282C48.5791 16.9822 47.9947 16.8093 47.2187 16.8093H43.3758V13.0926H46.9101C47.4057 13.0926 47.8218 13.0131 48.1584 12.8541C48.495 12.6858 48.7474 12.4521 48.9157 12.1529C49.0934 11.8443 49.1822 11.475 49.1822 11.0449C49.1822 10.4091 49.0139 9.91351 48.6773 9.55821C48.35 9.2029 47.8358 9.02525 47.1345 9.02525H44.7502C44.7502 9.59561 44.7502 10.1893 44.7502 10.8065C44.7502 11.4142 44.7502 12.1248 44.7502 12.9383V17.2861C44.7502 18.0435 44.7502 18.7027 44.7502 19.2637C44.7502 19.8247 44.7502 20.3717 44.7502 20.9046Z" fill="white"/>
<path d="M68.0006 25C66.2147 25 64.5971 25 63.1478 25C61.7079 25 60.3381 25 59.0384 25C59.0384 23.9434 59.0384 22.9196 59.0384 21.9285C59.0384 20.928 59.0384 19.7966 59.0384 18.5344V11.7041C59.0384 10.8252 59.0384 10.0164 59.0384 9.2777C59.0384 8.53904 59.0384 7.82375 59.0384 7.13184C59.0384 6.43993 59.0384 5.72931 59.0384 5H73.9473V9.74053C72.9655 9.74053 71.9136 9.74053 70.7916 9.74053C69.6789 9.74053 68.3652 9.74053 66.8505 9.74053H64.7327C64.7327 9.74053 64.7327 11.5737 64.7327 12.6297V17.5947C64.7327 18.1744 64.7327 18.7307 64.7327 19.2637C64.7327 19.7873 64.7327 20.3062 64.7327 20.8205H66.8505C67.3835 20.8205 67.837 20.7503 68.211 20.6101C68.5943 20.4698 68.8842 20.2361 69.0805 19.9088C69.2862 19.5722 69.3891 19.1281 69.3891 18.5764C69.3891 18.1931 69.3283 17.8705 69.2068 17.6087C69.0852 17.3469 68.9169 17.1365 68.7018 16.9776C68.4868 16.8186 68.2484 16.7064 67.9866 16.641C67.7247 16.5662 67.4583 16.5288 67.1871 16.5288H64.0314V12.7419C64.5737 12.7419 65.1254 12.7419 65.6864 12.7419C66.2568 12.7419 66.8879 12.7419 67.5798 12.7419C69.2629 12.7419 70.6701 12.9196 71.8014 13.2749C72.9421 13.6302 73.8024 14.252 74.3821 15.1403C74.9711 16.0192 75.2657 17.244 75.2657 18.8149C75.2657 20.0491 75.0226 21.1337 74.5363 22.0687C74.0501 22.9944 73.2741 23.7144 72.2082 24.2286C71.1422 24.7429 69.7397 25 68.0006 25Z" fill="white"/>
<path d="M78.7744 25C78.7744 23.9434 78.7744 22.9196 78.7744 21.9285C78.7744 20.928 78.7744 19.7966 78.7744 18.5344V11.7041C78.7744 10.3857 78.7744 9.21225 78.7744 8.18373C78.7744 7.14586 78.7744 6.08462 78.7744 5H92.6173V10.007C91.6542 10.007 90.621 10.007 89.5177 10.007C88.4237 10.007 87.1287 10.007 85.6327 10.007H84.5668V18.5344C84.5668 19.7966 84.5668 20.928 84.5668 21.9285C84.5668 22.9196 84.5668 23.9434 84.5668 25H78.7744Z" fill="white"/>
</svg>
